<?xml version="1.0" encoding="UTF-8" standalone="no"?> <!-- Created with Vectornator for iOS (http://vectornator.io/) --><!DOCTYPE svg PUBLIC "-//W3C//DTD SVG 1.1//EN" "http://www.w3.org/Graphics/SVG/1.1/DTD/svg11.dtd">
<svg height="100%" style="fill-rule:nonzero;clip-rule:evenodd;stroke-linecap:round;stroke-linejoin:round;" xmlns:xlink="http://www.w3.org/1999/xlink" xmlns="http://www.w3.org/2000/svg" xml:space="preserve" width="100%" xmlns:vectornator="http://vectornator.io" version="1.1" viewBox="0 0 400 400">
<metadata>
<vectornator:setting key="DimensionsVisible" value="1"/>
<vectornator:setting key="PencilOnly" value="0"/>
<vectornator:setting key="SnapToPoints" value="0"/>
<vectornator:setting key="OutlineMode" value="0"/>
<vectornator:setting key="CMYKEnabledKey" value="0"/>
<vectornator:setting key="RulersVisible" value="1"/>
<vectornator:setting key="SnapToEdges" value="0"/>
<vectornator:setting key="GuidesVisible" value="1"/>
<vectornator:setting key="DisplayWhiteBackground" value="0"/>
<vectornator:setting key="doHistoryDisabled" value="0"/>
<vectornator:setting key="SnapToGuides" value="1"/>
<vectornator:setting key="TimeLapseWatermarkDisabled" value="0"/>
<vectornator:setting key="Units" value="Pixels"/>
<vectornator:setting key="DynamicGuides" value="1"/>
<vectornator:setting key="IsolateActiveLayer" value="0"/>
<vectornator:setting key="SnapToGrid" value="0"/>
</metadata>
<defs>
<path d="M27.0021+39.3334L376.842+39.3334L376.842+388.983L27.0021+388.983L27.0021+39.3334Z" id="Mask"/>
</defs>
<g id="Layer 1" vectornator:layerName="Layer 1">
<g opacity="1" vectornator:mask="#Mask">
<clipPath id="ClipPath">
<use xlink:href="#Mask" fill="none" overflow="visible"/>
</clipPath>
<g clip-path="url(#ClipPath)">
<path d="M201.908+39.2922C196.299+39.2922+191.574+41.3101+187.652+45.2321C183.726+49.1575+181.712+53.8828+181.712+59.4878C181.712+62.2939+182.325+65.0526+183.449+67.7123C156.816+71.6365+135.24+82.7757+118.841+101.067C102.441+119.357+94.2591+139.161+94.2592+160.466C94.2592+179.948+92.8806+198.155+90.147+215.113C87.4135+232.072+83.9129+246.517+79.638+258.428C75.3616+270.344+70.1782+281.39+64.0115+291.691C57.8415+301.994+51.846+310.376+46.1005+316.822C40.3515+323.271+34.0078+329.486+27.0015+335.372C27.0015+342.662+29.6248+348.964+34.9518+354.289C40.2773+359.618+46.6675+362.239+53.9594+362.239L164.898+362.239C170.937+377.868+186.068+389.014+203.827+389.014C221.587+389.014+236.808+377.868+242.848+362.239L349.948+362.239C357.235+362.239+363.536+359.618+368.864+354.289C374.191+348.964+376.815+342.662+376.815+335.372C369.804+329.487+363.462+323.271+357.716+316.822C351.967+310.376+345.969+301.994+339.805+291.691C333.633+281.39+328.452+270.343+324.178+258.428C319.903+246.517+316.403+232.072+313.669+215.113C310.936+198.155+309.557+179.948+309.557+160.466C309.557+139.161+301.374+119.357+284.975+101.067C268.576+82.7756+247.086+71.6367+220.459+67.7123C221.578+65.0525+222.103+62.2939+222.104+59.4878C222.104+53.8828+220.178+49.1576+216.255+45.2321C212.331+41.3102+207.512+39.2923+201.908+39.2922ZM201.908+93.1167C214.943+93.1167+226.826+95.3733+237.547+99.7876C248.27+104.203+256.828+109.826+263.135+116.693C269.444+123.561+274.209+130.782+277.573+138.351C280.937+145.92+282.691+153.317+282.69+160.466C282.69+235.031+301.334+293.325+338.617+335.372L65.2909+335.372C102.573+293.325+121.217+235.031+121.217+160.466C121.217+153.317+122.879+145.92+126.243+138.351C129.607+130.782+134.465+123.561+140.773+116.693C147.08+109.826+155.546+104.203+166.269+99.7876C176.991+95.3733+188.872+93.1166+201.908+93.1167Z" opacity="1" fill="#e1e0e1"/>
</g>
</g>
<path d="M261.134+198.14L258.803+196.771L257.742+199.258L256.887+201.261C253.495+209.227+246.749+214.174+239.284+214.174C231.818+214.174+225.074+209.227+221.681+201.262L220.828+199.259L219.768+196.771L217.436+198.14L210.203+202.385L208.399+203.445L209.218+205.37L210.071+207.372C215.6+220.359+226.794+228.426+239.284+228.426C251.773+228.426+262.967+220.359+268.497+207.372L269.35+205.371L270.172+203.445L268.366+202.385L261.134+198.14Z" opacity="1" fill="#9b9b9b"/>
<path d="M196.091+205.37L196.911+203.445L195.107+202.386L187.873+198.139L185.542+196.771L184.481+199.257L183.627+201.261C180.234+209.227+173.49+214.175+166.024+214.175C158.559+214.175+151.814+209.227+148.422+201.262L147.568+199.259L146.508+196.77L144.175+198.139L136.943+202.386L135.138+203.445L135.958+205.37L136.812+207.372C142.34+220.358+153.534+228.427+166.024+228.427C178.513+228.427+189.706+220.358+195.237+207.371L196.091+205.37Z" opacity="1" fill="#9b9b9b"/>
<path d="M203.845+269.829C197.589+269.829+192.518+274.901+192.518+281.155C192.518+287.411+197.589+292.482+203.845+292.482C210.099+292.482+215.17+287.411+215.17+281.155C215.17+274.901+210.099+269.829+203.845+269.829" opacity="1" fill="#9b9b9b"/>
<path d="M362.273+98.3055L331.321+98.3055L331.321+106.31L349.131+106.31L330.854+127.922L330.854+134.191L362.87+134.191L362.87+126.188L343.996+126.188L362.273+104.576L362.273+98.3055Z" opacity="1" fill="#9b9b9b"/>
<path d="M291.649+71.7715L345.832+71.7489L345.826+58.2038L313.884+58.2157L344.801+21.6271L344.797+11.0166L292.416+11.038L292.42+24.5843L322.562+24.5712L291.646+61.161L291.649+71.7715Z" opacity="1" fill="#9b9b9b"/>
</g>
</svg>
