<?xml version="1.0" encoding="UTF-8" standalone="no"?> <!-- Created with Vectornator for iOS (http://vectornator.io/) --><!DOCTYPE svg PUBLIC "-//W3C//DTD SVG 1.1//EN" "http://www.w3.org/Graphics/SVG/1.1/DTD/svg11.dtd">
<svg height="100%" style="fill-rule:nonzero;clip-rule:evenodd;stroke-linecap:round;stroke-linejoin:round;" xmlns:xlink="http://www.w3.org/1999/xlink" xmlns="http://www.w3.org/2000/svg" xml:space="preserve" width="100%" xmlns:vectornator="http://vectornator.io" version="1.1" viewBox="0 0 289.078 280">
<metadata>
<vectornator:setting key="DimensionsVisible" value="0"/>
<vectornator:setting key="PencilOnly" value="0"/>
<vectornator:setting key="SnapToPoints" value="0"/>
<vectornator:setting key="OutlineMode" value="0"/>
<vectornator:setting key="CMYKEnabledKey" value="0"/>
<vectornator:setting key="RulersVisible" value="1"/>
<vectornator:setting key="SnapToEdges" value="0"/>
<vectornator:setting key="GuidesVisible" value="0"/>
<vectornator:setting key="DisplayWhiteBackground" value="0"/>
<vectornator:setting key="doHistoryDisabled" value="0"/>
<vectornator:setting key="SnapToGuides" value="1"/>
<vectornator:setting key="TimeLapseWatermarkDisabled" value="0"/>
<vectornator:setting key="Units" value="Points"/>
<vectornator:setting key="DynamicGuides" value="1"/>
<vectornator:setting key="IsolateActiveLayer" value="0"/>
<vectornator:setting key="SnapToGrid" value="0"/>
</metadata>
<defs>
<linearGradient y1="48" id="LinearGradient" x1="20.5" y2="48" x2="75.5" gradientUnits="userSpaceOnUse" gradientTransform="matrix(2.51965 0 0 2.57221 15.4531 -52.5424)">
<stop stop-color="#920031" offset="0"/>
<stop stop-color="#ff0055" offset="1"/>
</linearGradient>
<linearGradient y1="48" id="LinearGradient_2" x1="20.5" y2="48" x2="75.5" gradientUnits="userSpaceOnUse" gradientTransform="matrix(2.51965 0 0 2.57221 15.4531 70.1138)">
<stop stop-color="#920031" offset="0"/>
<stop stop-color="#ff0055" offset="1"/>
</linearGradient>
<path d="M205.941+140.304L168.533+156.082L184.152+193.113L221.561+177.335L205.941+140.304Z" id="Mask"/>
<path d="M221.278+162.154L173.334+182.376L188.94+219.377L236.884+199.155L221.278+162.154Z" id="Mask_2"/>
<path d="M206.242+175.84L182.413+185.891L193.371+211.869L217.199+201.818L206.242+175.84Z" id="Mask_3"/>
<path d="M216.561+169.544L210.742+171.998L211.438+173.649L217.257+171.194L216.561+169.544Z" id="Mask_4"/>
<path d="M219.448+176.39L217.786+177.091L218.662+179.169L220.324+178.468L219.448+176.39Z" id="Mask_5"/>
<path d="M225.146+189.898L223.483+190.6L224.36+192.678L226.022+191.977L225.146+189.898Z" id="Mask_6"/>
<path d="M222.297+183.144L216.478+185.599L217.355+187.677L223.173+185.222L222.297+183.144Z" id="Mask_7"/>
<path d="M228.214+197.172L222.395+199.627L223.118+201.341L228.937+198.887L228.214+197.172Z" id="Mask_8"/>
</defs>
<g id="SvgjsG1008" vectornator:layerName="SvgjsG1008">
<g opacity="1">
<path d="M136.98+51.6637C137.676+51.6637+138.24+51.0879+138.24+50.3776L138.24+24.6555C138.24+23.9452+137.676+23.3694+136.98+23.3694C136.284+23.3694+135.72+23.9452+135.72+24.6555L135.72+50.3776C135.72+51.0879+136.284+51.6637+136.98+51.6637ZM86.5868+105.68L81.5475+105.68C78.0703+105.684+75.2525+108.561+75.2483+112.111L75.2483+127.544C75.2483+131.091+78.0754+133.974+81.5475+133.974L86.5868+133.974C90.0589+133.974+92.8859+131.091+92.8859+127.544L92.8859+112.111C92.8859+108.564+90.0589+105.68+86.5868+105.68ZM90.3663+127.544C90.3663+129.671+88.6705+131.402+86.5868+131.402L81.5475+131.402C79.4637+131.402+77.768+129.671+77.768+127.544L77.768+112.111C77.768+109.983+79.4637+108.252+81.5475+108.252L86.5868+108.252C88.6705+108.252+90.3663+109.983+90.3663+112.111L90.3663+127.544ZM91.6261+64.5247C90.9303+64.5247+90.3663+65.1006+90.3663+65.8109L90.3663+91.533C90.3663+92.2433+90.9303+92.8191+91.6261+92.8191C92.3219+92.8191+92.8859+92.2433+92.8859+91.533L92.8859+65.8109C92.8859+65.1006+92.3219+64.5247+91.6261+64.5247ZM197.451+92.8191C198.147+92.8191+198.711+92.2433+198.711+91.533L198.711+65.8109C198.711+65.1006+198.147+64.5247+197.451+64.5247C196.756+64.5247+196.192+65.1006+196.192+65.8109L196.192+91.533C196.192+92.2433+196.756+92.8191+197.451+92.8191ZM197.451+51.6637C198.147+51.6637+198.711+51.0879+198.711+50.3776L198.711+24.6555C198.711+23.9452+198.147+23.3694+197.451+23.3694C196.756+23.3694+196.192+23.9452+196.192+24.6555L196.192+50.3776C196.192+51.0879+196.756+51.6637+197.451+51.6637ZM76.5082+92.8191C77.204+92.8191+77.768+92.2433+77.768+91.533L77.768+65.8109C77.768+65.1006+77.204+64.5247+76.5082+64.5247C75.8124+64.5247+75.2483+65.1006+75.2483+65.8109L75.2483+91.533C75.2483+92.2433+75.8124+92.8191+76.5082+92.8191ZM121.862+51.6637C122.558+51.6637+123.122+51.0879+123.122+50.3776L123.122+24.6555C123.122+23.9452+122.558+23.3694+121.862+23.3694C121.166+23.3694+120.602+23.9452+120.602+24.6555L120.602+50.3776C120.602+51.0879+121.166+51.6637+121.862+51.6637ZM182.334+51.6637C183.029+51.6637+183.593+51.0879+183.593+50.3776L183.593+24.6555C183.593+23.9452+183.029+23.3694+182.334+23.3694C181.638+23.3694+181.074+23.9452+181.074+24.6555L181.074+50.3776C181.074+51.0879+181.638+51.6637+182.334+51.6637ZM106.744+51.6637C107.44+51.6637+108.004+51.0879+108.004+50.3776L108.004+24.6555C108.004+23.9452+107.44+23.3694+106.744+23.3694C106.048+23.3694+105.484+23.9452+105.484+24.6555L105.484+50.3776C105.484+51.0879+106.048+51.6637+106.744+51.6637ZM212.569+64.5247C211.874+64.5247+211.31+65.1006+211.31+65.8109L211.31+91.533C211.31+92.2433+211.874+92.8191+212.569+92.8191C213.265+92.8191+213.829+92.2433+213.829+91.533L213.829+65.8109C213.829+65.1006+213.265+64.5247+212.569+64.5247ZM177.294+105.68L172.255+105.68C168.777+105.683+165.959+108.56+165.956+112.111L165.956+127.544C165.956+131.091+168.78+133.974+172.255+133.974L177.294+133.974C180.769+133.974+183.593+131.091+183.593+127.544L183.593+112.111C183.593+108.564+180.769+105.68+177.294+105.68ZM181.074+127.544C181.074+129.671+179.378+131.402+177.294+131.402L172.255+131.402C170.171+131.402+168.475+129.671+168.475+127.544L168.475+112.111C168.475+109.983+170.171+108.252+172.255+108.252L177.294+108.252C179.378+108.252+181.074+109.983+181.074+112.111L181.074+127.544ZM177.294+63.2386L172.255+63.2386C168.087+63.2386+164.696+66.7008+164.696+70.9553L164.696+86.3885C164.696+90.643+168.087+94.1052+172.255+94.1052L177.294+94.1052C181.462+94.1052+184.853+90.643+184.853+86.3885L184.853+70.9553C184.853+66.7008+181.462+63.2386+177.294+63.2386ZM179.814+86.3885C179.814+87.8091+178.686+88.9608+177.294+88.9608L172.255+88.9608C170.863+88.9608+169.735+87.8091+169.735+86.3885L169.735+70.9553C169.735+69.5347+170.863+68.3831+172.255+68.3831L177.294+68.3831C178.686+68.3831+179.814+69.5347+179.814+70.9553C179.814+70.9553+179.814+86.3885+179.814+86.3885ZM212.569+23.3694C211.874+23.3694+211.31+23.9452+211.31+24.6555L211.31+50.3776C211.31+51.0879+211.874+51.6637+212.569+51.6637C213.265+51.6637+213.829+51.0879+213.829+50.3776L213.829+24.6555C213.829+23.9452+213.265+23.3694+212.569+23.3694ZM168.475+45.2332L168.475+29.7999C168.475+26.2528+165.651+23.3694+162.176+23.3694L157.137+23.3694C153.659+23.3722+150.841+26.2496+150.838+29.7999L150.838+45.2332C150.838+48.7802+153.662+51.6637+157.137+51.6637L162.176+51.6637C165.651+51.6637+168.475+48.7802+168.475+45.2332ZM165.956+45.2332C165.956+47.3604+164.26+49.0915+162.176+49.0915L157.137+49.0915C155.053+49.0915+153.358+47.3604+153.358+45.2332L153.358+29.7999C153.358+27.6727+155.053+25.9416+157.137+25.9416L162.176+25.9416C164.26+25.9416+165.956+27.6727+165.956+29.7999L165.956+45.2332ZM207.53+105.68L202.491+105.68C199.013+105.683+196.194+108.56+196.192+112.111L196.192+127.544C196.192+131.091+199.016+133.974+202.491+133.974L207.53+133.974C211.005+133.974+213.829+131.091+213.829+127.544L213.829+112.111C213.829+108.564+211.005+105.68+207.53+105.68ZM211.31+127.544C211.31+129.671+209.614+131.402+207.53+131.402L202.491+131.402C200.407+131.402+198.711+129.671+198.711+127.544L198.711+112.111C198.711+109.983+200.407+108.252+202.491+108.252L207.53+108.252C209.614+108.252+211.31+109.983+211.31+112.111L211.31+127.544ZM131.941+105.68L126.901+105.68C123.424+105.684+120.606+108.561+120.602+112.111L120.602+127.544C120.602+131.091+123.429+133.974+126.901+133.974L131.941+133.974C135.413+133.974+138.24+131.091+138.24+127.544L138.24+112.111C138.24+108.564+135.413+105.68+131.941+105.68ZM135.72+127.544C135.72+129.671+134.024+131.402+131.941+131.402L126.901+131.402C124.817+131.402+123.122+129.671+123.122+127.544L123.122+112.111C123.122+109.983+124.817+108.252+126.901+108.252L131.941+108.252C134.024+108.252+135.72+109.983+135.72+112.111L135.72+127.544ZM106.744+105.68C106.048+105.68+105.484+106.256+105.484+106.966L105.484+132.688C105.484+133.399+106.048+133.974+106.744+133.974C107.44+133.974+108.004+133.399+108.004+132.688L108.004+106.966C108.004+106.256+107.44+105.68+106.744+105.68ZM124.382+86.3885L124.382+70.9553C124.382+66.7008+120.99+63.2386+116.823+63.2386L111.783+63.2386C107.616+63.2386+104.224+66.7008+104.224+70.9553L104.224+86.3885C104.224+90.643+107.616+94.1052+111.783+94.1052L116.823+94.1052C120.99+94.1052+124.382+90.643+124.382+86.3885ZM119.342+86.3885C119.342+87.8084+118.211+88.9608+116.823+88.9608L111.783+88.9608C110.395+88.9608+109.264+87.8084+109.264+86.3885L109.264+70.9553C109.264+69.5354+110.395+68.3831+111.783+68.3831L116.823+68.3831C118.211+68.3831+119.342+69.5354+119.342+70.9553L119.342+86.3885ZM86.5868+23.3694L81.5475+23.3694C78.0703+23.3736+75.2525+26.2502+75.2483+29.7999L75.2483+45.2332C75.2483+48.7802+78.0754+51.6637+81.5475+51.6637L86.5868+51.6637C90.0589+51.6637+92.8859+48.7802+92.8859+45.2332L92.8859+29.7999C92.8859+26.2528+90.0589+23.3694+86.5868+23.3694ZM90.3663+45.2332C90.3663+47.3604+88.6705+49.0915+86.5868+49.0915L81.5475+49.0915C79.4637+49.0915+77.768+47.3604+77.768+45.2332L77.768+29.7999C77.768+27.6727+79.4637+25.9416+81.5475+25.9416L86.5868+25.9416C88.6705+25.9416+90.3663+27.6727+90.3663+29.7999L90.3663+45.2332ZM152.098+105.68C151.402+105.68+150.838+106.256+150.838+106.966L150.838+132.688C150.838+133.399+151.402+133.974+152.098+133.974C152.794+133.974+153.358+133.399+153.358+132.688L153.358+106.966C153.358+106.256+152.794+105.68+152.098+105.68ZM147.058+63.2386L142.019+63.2386C137.852+63.2386+134.46+66.7008+134.46+70.9553L134.46+86.3885C134.46+90.643+137.852+94.1052+142.019+94.1052L147.058+94.1052C151.226+94.1052+154.617+90.643+154.617+86.3885L154.617+70.9553C154.617+66.7008+151.226+63.2386+147.058+63.2386ZM147.058+88.9608L142.019+88.9608C140.631+88.9608+139.499+87.8084+139.499+86.3885L139.499+70.9553C139.499+69.5354+140.631+68.3831+142.019+68.3831L147.058+68.3831C148.45+68.3831+149.578+69.5347+149.578+70.9553C149.578+70.9553+149.578+86.3885+149.578+86.3885C149.578+87.8091+148.45+88.9608+147.058+88.9608" opacity="1" fill="url(#LinearGradient)"/>
<path d="M136.98+174.32C137.676+174.32+138.24+173.744+138.24+173.034L138.24+147.312C138.24+146.601+137.676+146.026+136.98+146.026C136.284+146.026+135.72+146.601+135.72+147.312L135.72+173.034C135.72+173.744+136.284+174.32+136.98+174.32ZM86.5868+228.336L81.5475+228.336C78.0703+228.341+75.2525+231.217+75.2483+234.767L75.2483+250.2C75.2483+253.747+78.0754+256.631+81.5475+256.631L86.5868+256.631C90.0589+256.631+92.8859+253.747+92.8859+250.2L92.8859+234.767C92.8859+231.22+90.0589+228.336+86.5868+228.336ZM90.3663+250.2C90.3663+252.327+88.6705+254.058+86.5868+254.058L81.5475+254.058C79.4637+254.058+77.768+252.327+77.768+250.2L77.768+234.767C77.768+232.64+79.4637+230.909+81.5475+230.909L86.5868+230.909C88.6705+230.909+90.3663+232.64+90.3663+234.767L90.3663+250.2ZM91.6261+187.181C90.9303+187.181+90.3663+187.757+90.3663+188.467L90.3663+214.189C90.3663+214.899+90.9303+215.475+91.6261+215.475C92.3219+215.475+92.8859+214.899+92.8859+214.189L92.8859+188.467C92.8859+187.757+92.3219+187.181+91.6261+187.181ZM197.451+215.475C198.147+215.475+198.711+214.899+198.711+214.189L198.711+188.467C198.711+187.757+198.147+187.181+197.451+187.181C196.756+187.181+196.192+187.757+196.192+188.467L196.192+214.189C196.192+214.899+196.756+215.475+197.451+215.475ZM197.451+174.32C198.147+174.32+198.711+173.744+198.711+173.034L198.711+147.312C198.711+146.601+198.147+146.026+197.451+146.026C196.756+146.026+196.192+146.601+196.192+147.312L196.192+173.034C196.192+173.744+196.756+174.32+197.451+174.32ZM76.5082+215.475C77.204+215.475+77.768+214.899+77.768+214.189L77.768+188.467C77.768+187.757+77.204+187.181+76.5082+187.181C75.8124+187.181+75.2483+187.757+75.2483+188.467L75.2483+214.189C75.2483+214.899+75.8124+215.475+76.5082+215.475ZM121.862+174.32C122.558+174.32+123.122+173.744+123.122+173.034L123.122+147.312C123.122+146.601+122.558+146.026+121.862+146.026C121.166+146.026+120.602+146.601+120.602+147.312L120.602+173.034C120.602+173.744+121.166+174.32+121.862+174.32ZM182.334+174.32C183.029+174.32+183.593+173.744+183.593+173.034L183.593+147.312C183.593+146.601+183.029+146.026+182.334+146.026C181.638+146.026+181.074+146.601+181.074+147.312L181.074+173.034C181.074+173.744+181.638+174.32+182.334+174.32ZM106.744+174.32C107.44+174.32+108.004+173.744+108.004+173.034L108.004+147.312C108.004+146.601+107.44+146.026+106.744+146.026C106.048+146.026+105.484+146.601+105.484+147.312L105.484+173.034C105.484+173.744+106.048+174.32+106.744+174.32ZM212.569+187.181C211.874+187.181+211.31+187.757+211.31+188.467L211.31+214.189C211.31+214.899+211.874+215.475+212.569+215.475C213.265+215.475+213.829+214.899+213.829+214.189L213.829+188.467C213.829+187.757+213.265+187.181+212.569+187.181ZM177.294+228.336L172.255+228.336C168.777+228.339+165.959+231.217+165.956+234.767L165.956+250.2C165.956+253.747+168.78+256.631+172.255+256.631L177.294+256.631C180.769+256.631+183.593+253.747+183.593+250.2L183.593+234.767C183.593+231.22+180.769+228.336+177.294+228.336ZM181.074+250.2C181.074+252.327+179.378+254.058+177.294+254.058L172.255+254.058C170.171+254.058+168.475+252.327+168.475+250.2L168.475+234.767C168.475+232.64+170.171+230.909+172.255+230.909L177.294+230.909C179.378+230.909+181.074+232.64+181.074+234.767L181.074+250.2ZM177.294+185.895L172.255+185.895C168.087+185.895+164.696+189.357+164.696+193.611L164.696+209.045C164.696+213.299+168.087+216.761+172.255+216.761L177.294+216.761C181.462+216.761+184.853+213.299+184.853+209.045L184.853+193.611C184.853+189.357+181.462+185.895+177.294+185.895ZM179.814+209.045C179.814+210.465+178.686+211.617+177.294+211.617L172.255+211.617C170.863+211.617+169.735+210.465+169.735+209.045L169.735+193.611C169.735+192.191+170.863+191.039+172.255+191.039L177.294+191.039C178.686+191.039+179.814+192.191+179.814+193.611C179.814+193.611+179.814+209.045+179.814+209.045ZM212.569+146.026C211.874+146.026+211.31+146.601+211.31+147.312L211.31+173.034C211.31+173.744+211.874+174.32+212.569+174.32C213.265+174.32+213.829+173.744+213.829+173.034L213.829+147.312C213.829+146.601+213.265+146.026+212.569+146.026ZM168.475+167.889L168.475+152.456C168.475+148.909+165.651+146.026+162.176+146.026L157.137+146.026C153.659+146.028+150.841+148.906+150.838+152.456L150.838+167.889C150.838+171.436+153.662+174.32+157.137+174.32L162.176+174.32C165.651+174.32+168.475+171.436+168.475+167.889ZM165.956+167.889C165.956+170.017+164.26+171.748+162.176+171.748L157.137+171.748C155.053+171.748+153.358+170.017+153.358+167.889L153.358+152.456C153.358+150.329+155.053+148.598+157.137+148.598L162.176+148.598C164.26+148.598+165.956+150.329+165.956+152.456L165.956+167.889ZM207.53+228.336L202.491+228.336C199.013+228.339+196.194+231.217+196.192+234.767L196.192+250.2C196.192+253.747+199.016+256.631+202.491+256.631L207.53+256.631C211.005+256.631+213.829+253.747+213.829+250.2L213.829+234.767C213.829+231.22+211.005+228.336+207.53+228.336ZM211.31+250.2C211.31+252.327+209.614+254.058+207.53+254.058L202.491+254.058C200.407+254.058+198.711+252.327+198.711+250.2L198.711+234.767C198.711+232.64+200.407+230.909+202.491+230.909L207.53+230.909C209.614+230.909+211.31+232.64+211.31+234.767L211.31+250.2ZM131.941+228.336L126.901+228.336C123.424+228.341+120.606+231.217+120.602+234.767L120.602+250.2C120.602+253.747+123.429+256.631+126.901+256.631L131.941+256.631C135.413+256.631+138.24+253.747+138.24+250.2L138.24+234.767C138.24+231.22+135.413+228.336+131.941+228.336ZM135.72+250.2C135.72+252.327+134.024+254.058+131.941+254.058L126.901+254.058C124.817+254.058+123.122+252.327+123.122+250.2L123.122+234.767C123.122+232.64+124.817+230.909+126.901+230.909L131.941+230.909C134.024+230.909+135.72+232.64+135.72+234.767L135.72+250.2ZM106.744+228.336C106.048+228.336+105.484+228.912+105.484+229.622L105.484+255.345C105.484+256.055+106.048+256.631+106.744+256.631C107.44+256.631+108.004+256.055+108.004+255.345L108.004+229.622C108.004+228.912+107.44+228.336+106.744+228.336ZM124.382+209.045L124.382+193.611C124.382+189.357+120.99+185.895+116.823+185.895L111.783+185.895C107.616+185.895+104.224+189.357+104.224+193.611L104.224+209.045C104.224+213.299+107.616+216.761+111.783+216.761L116.823+216.761C120.99+216.761+124.382+213.299+124.382+209.045ZM119.342+209.045C119.342+210.465+118.211+211.617+116.823+211.617L111.783+211.617C110.395+211.617+109.264+210.465+109.264+209.045L109.264+193.611C109.264+192.192+110.395+191.039+111.783+191.039L116.823+191.039C118.211+191.039+119.342+192.192+119.342+193.611L119.342+209.045ZM86.5868+146.026L81.5475+146.026C78.0703+146.03+75.2525+148.906+75.2483+152.456L75.2483+167.889C75.2483+171.436+78.0754+174.32+81.5475+174.32L86.5868+174.32C90.0589+174.32+92.8859+171.436+92.8859+167.889L92.8859+152.456C92.8859+148.909+90.0589+146.026+86.5868+146.026ZM90.3663+167.889C90.3663+170.017+88.6705+171.748+86.5868+171.748L81.5475+171.748C79.4637+171.748+77.768+170.017+77.768+167.889L77.768+152.456C77.768+150.329+79.4637+148.598+81.5475+148.598L86.5868+148.598C88.6705+148.598+90.3663+150.329+90.3663+152.456L90.3663+167.889ZM152.098+228.336C151.402+228.336+150.838+228.912+150.838+229.622L150.838+255.345C150.838+256.055+151.402+256.631+152.098+256.631C152.794+256.631+153.358+256.055+153.358+255.345L153.358+229.622C153.358+228.912+152.794+228.336+152.098+228.336ZM147.058+185.895L142.019+185.895C137.852+185.895+134.46+189.357+134.46+193.611L134.46+209.045C134.46+213.299+137.852+216.761+142.019+216.761L147.058+216.761C151.226+216.761+154.617+213.299+154.617+209.045L154.617+193.611C154.617+189.357+151.226+185.895+147.058+185.895ZM147.058+211.617L142.019+211.617C140.631+211.617+139.499+210.465+139.499+209.045L139.499+193.611C139.499+192.192+140.631+191.039+142.019+191.039L147.058+191.039C148.45+191.039+149.578+192.191+149.578+193.611C149.578+193.611+149.578+209.045+149.578+209.045C149.578+210.465+148.45+211.617+147.058+211.617" opacity="1" fill="url(#LinearGradient_2)"/>
</g>
<g vectornator:shadowOffset="4" vectornator:shadowOpacity="1" vectornator:shadowAngle="45" vectornator:shadowColor="#959595" opacity="1" vectornator:shadowRadius="10">
<path d="M137.542+106.161L191.298+83.4869C198.721+80.3563+207.275+83.8354+210.406+91.2575L258.587+205.489C261.718+212.912+258.239+221.466+250.817+224.597L197.06+247.271C189.638+250.401+181.083+246.922+177.953+239.5L129.772+125.268C126.641+117.846+130.12+109.291+137.542+106.161Z" opacity="1" fill="#959595"/>
<path d="M136.158+106.744L115.518+57.8094C114.735+55.9539+115.605+53.8152+117.461+53.0325L167.642+31.8667C169.497+31.0841+171.636+31.9538+172.419+33.8094L193.059+82.7443" opacity="1" fill="#c28841"/>
<path d="M161.411+74.0101L170.893+70.011L157.177+37.4919L147.695+41.4909L161.409+74.0034L161.411+74.0101ZM141.155+82.5538L150.637+78.5547L136.921+46.0356L127.443+50.0332L141.156+82.5457L141.155+82.5538Z" opacity="1" fill="#ccc2b6"/>
<g opacity="1" vectornator:mask="#Mask">
<clipPath id="ClipPath">
<use xlink:href="#Mask" fill="none" overflow="visible"/>
</clipPath>
<g clip-path="url(#ClipPath)">
<path d="M187.176+148.245C197.36+143.95+209.105+148.745+213.411+158.953L221.206+177.436L213.831+180.547L206.035+162.064C203.452+155.939+196.405+153.061+190.294+155.639C184.183+158.216+181.324+165.272+183.907+171.397L191.703+189.88L184.328+192.991L176.532+174.508C172.226+164.3+176.991+152.541+187.176+148.245Z" fill-rule="evenodd" fill="#ff225c" opacity="1"/>
</g>
</g>
<g opacity="1" vectornator:mask="#Mask_2">
<clipPath id="ClipPath_2">
<use xlink:href="#Mask_2" fill="none" overflow="visible"/>
</clipPath>
<g clip-path="url(#ClipPath_2)">
<path d="M185.812+211.961C187.534+216.044+192.236+217.963+196.309+216.245L229.5+202.245C233.573+200.527+235.478+195.822+233.756+191.739L224.4+169.558C222.678+165.475+217.98+163.557+213.907+165.275L180.715+179.275C176.642+180.993+174.734+185.697+176.457+189.78L185.812+211.961Z" fill-rule="evenodd" fill="#ff225c" opacity="1"/>
</g>
</g>
<g opacity="1" vectornator:mask="#Mask_3">
<clipPath id="ClipPath_3">
<use xlink:href="#Mask_3" fill="none" overflow="visible"/>
</clipPath>
<g clip-path="url(#ClipPath_3)">
<path d="M210.498+186.173L206.34+176.315L187.571+198.056L201.153+192.328L210.498+186.173ZM212.746+191.504L201.875+193.962L188.28+199.696L216.934+201.433L212.746+191.504Z" fill-rule="evenodd" fill="#ffffff" opacity="1"/>
</g>
</g>
<g opacity="1" vectornator:mask="#Mask_4">
<clipPath id="ClipPath_4">
<use xlink:href="#Mask_4" fill="none" overflow="visible"/>
</clipPath>
<g clip-path="url(#ClipPath_4)">
<path d="M216.488+169.542L210.734+171.968L211.426+173.61L217.18+171.183L216.488+169.542Z" fill-rule="evenodd" fill="#ffffff" opacity="1"/>
</g>
</g>
<path d="M216.512+177.643L213.636+178.856L214.33+180.499L217.206+179.286L216.512+177.643Z" opacity="1" fill="none"/>
<g opacity="1" vectornator:mask="#Mask_5">
<clipPath id="ClipPath_5">
<use xlink:href="#Mask_5" fill="none" overflow="visible"/>
</clipPath>
<g clip-path="url(#ClipPath_5)">
<path d="M219.392+176.428L217.797+177.101L218.49+178.745L220.086+178.072L219.392+176.428Z" fill-rule="evenodd" fill="#ffffff" opacity="1"/>
</g>
</g>
<g opacity="1" vectornator:mask="#Mask_6">
<clipPath id="ClipPath_6">
<use xlink:href="#Mask_6" fill="none" overflow="visible"/>
</clipPath>
<g clip-path="url(#ClipPath_6)">
<path d="M225.27+190.363L223.674+191.035L224.333+192.596L225.928+191.923L225.27+190.363Z" fill-rule="evenodd" fill="#ffffff" opacity="1"/>
</g>
</g>
<g opacity="1" vectornator:mask="#Mask_7">
<clipPath id="ClipPath_7">
<use xlink:href="#Mask_7" fill="none" overflow="visible"/>
</clipPath>
<g clip-path="url(#ClipPath_7)">
<path d="M222.331+183.395L216.577+185.822L217.271+187.466L223.024+185.039L222.331+183.395Z" fill-rule="evenodd" fill="#ffffff" opacity="1"/>
</g>
</g>
<path d="M222.39+191.577L219.514+192.79L220.172+194.351L223.048+193.138L222.39+191.577Z" opacity="1" fill="none"/>
<g opacity="1" vectornator:mask="#Mask_8">
<clipPath id="ClipPath_8">
<use xlink:href="#Mask_8" fill="none" overflow="visible"/>
</clipPath>
<g clip-path="url(#ClipPath_8)">
<path d="M228.173+197.247L222.42+199.674L223.114+201.32L228.868+198.893L228.173+197.247Z" fill-rule="evenodd" fill="#ffffff" opacity="1"/>
</g>
</g>
</g>
</g>
</svg>
