<svg height="100%" style="fill-rule:nonzero;clip-rule:evenodd;stroke-linecap:round;stroke-linejoin:round;" xmlns:xlink="http://www.w3.org/1999/xlink" xmlns="http://www.w3.org/2000/svg" xml:space="preserve" width="100%" xmlns:vectornator="http://vectornator.io" version="1.1" viewBox="0 0 1268.23 241.842">
<defs>
<path d="M20.868+2.10859L163.847+2.10859L163.847+143.644L20.868+143.644L20.868+2.10859Z" id="Mask"/>
<path d="M1.00986+93.9991L184.256+93.9991L184.256+235.419L1.00986+235.419L1.00986+93.9991Z" id="Mask_2"/>
<path d="M68.5276+117.829L159.604+117.829L159.604+217.12L68.5276+217.12L68.5276+117.829Z" id="Mask_3"/>
<path d="M26.4299+111.522L48.6694+111.522L48.6694+117.829L26.4299+117.829L26.4299+111.522Z" id="Mask_4"/>
<path d="M26.4299+137.687L32.7829+137.687L32.7829+145.63L26.4299+145.63L26.4299+137.687Z" id="Mask_5"/>
<path d="M26.4299+189.318L32.7829+189.318L32.7829+197.262L26.4299+197.262L26.4299+189.318Z" id="Mask_6"/>
<path d="M26.4299+163.503L48.6694+163.503L48.6694+171.446L26.4299+171.446L26.4299+163.503Z" id="Mask_7"/>
<path d="M26.4299+217.12L48.6694+217.12L48.6694+223.674L26.4299+223.674L26.4299+217.12Z" id="Mask_8"/>
<path d="M235.336+6.62322L292.506+6.62322L292.506+66.1977L235.336+66.1977L235.336+6.62322Z" id="Mask_9"/>
<path d="M210.591+2.10859L225.407+2.10859L225.407+6.62322L210.591+6.62322L210.591+2.10859Z" id="Mask_10"/>
<path d="M210.591+16.5523L215.478+16.5523L215.478+22.5097L210.591+22.5097L210.591+16.5523Z" id="Mask_11"/>
<path d="M210.591+50.3112L215.478+50.3112L215.478+56.2686L210.591+56.2686L210.591+50.3112Z" id="Mask_12"/>
<path d="M210.591+32.4388L225.407+32.4388L225.407+38.3963L210.591+38.3963L210.591+32.4388Z" id="Mask_13"/>
<path d="M210.591+66.1977L225.407+66.1977L225.407+70.6192L210.591+70.6192L210.591+66.1977Z" id="Mask_14"/>
<path d="M1023.7+6.62322L1081.5+6.62322L1081.5+66.1977L1023.7+66.1977L1023.7+6.62322Z" id="Mask_15"/>
<path d="M999.58+2.10859L1013.78+2.10859L1013.78+6.62322L999.58+6.62322L999.58+2.10859Z" id="Mask_16"/>
<path d="M999.58+16.5523L1003.85+16.5523L1003.85+22.5097L999.58+22.5097L999.58+16.5523Z" id="Mask_17"/>
<path d="M999.58+50.3112L1003.85+50.3112L1003.85+56.2686L999.58+56.2686L999.58+50.3112Z" id="Mask_18"/>
<path d="M999.58+32.4388L1013.78+32.4388L1013.78+38.3963L999.58+38.3963L999.58+32.4388Z" id="Mask_19"/>
<path d="M999.58+66.1977L1013.78+66.1977L1013.78+70.6192L999.58+70.6192L999.58+66.1977Z" id="Mask_20"/>
</defs>
<g id="Untitled" vectornator:layerName="Untitled">
<path d="M0+0L1268.23+0L1268.23+0L1268.23+241.842L1268.23+241.842L0+241.842L0+241.842L0+0L0+0Z" opacity="1" fill="none"/>
<path d="M236.672+235.96L236.672+74.3024L284.579+74.3024L284.579+235.96L236.672+235.96Z" opacity="1" fill="#929292"/>
<path d="M326.622+235.96L326.622+74.3024L365.718+74.3024L368.975+95.1535L370.279+95.1535C377.02+88.4126+384.195+82.6025+391.812+77.7155C399.422+72.8131+408.544+70.3618+419.179+70.3618C430.699+70.3618+439.984+72.7045+447.043+77.3742C454.117+82.0518+459.71+88.7306+463.829+97.4186C471.005+90.0338+478.552+83.6885+486.48+78.3671C494.423+73.0303+503.825+70.3618+514.685+70.3618C532.076+70.3618+544.844+76.1796+552.974+87.7998C561.119+99.4276+565.199+115.345+565.199+135.552L565.199+235.96L517.291+235.96L517.291+141.758C517.291+130.029+515.716+121.993+512.575+117.649C509.425+113.305+504.368+111.133+497.402+111.133C489.373+111.133+480.15+116.346+469.725+126.771L469.725+235.96L421.786+235.96L421.786+141.758C421.786+130.029+420.211+121.993+417.069+117.649C413.92+113.305+408.862+111.133+401.897+111.133C393.643+111.133+384.521+116.346+374.53+126.771L374.53+235.96L326.622+235.96Z" opacity="1" fill="#929292"/>
<path d="M597.111+235.96L597.111+210.207L664.908+111.785L604.62+111.785L604.62+74.3024L724.576+74.3024L724.576+99.7147L656.779+198.478L726.841+198.478L726.841+235.96L597.111+235.96Z" opacity="1" fill="#929292"/>
<path d="M796.58+239.87C789.196+239.87+782.509+238.613+776.536+236.115C770.555+233.618+765.498+230.142+761.363+225.69C757.244+221.245+754.04+216.087+751.744+210.207C749.464+204.335+748.331+197.919+748.331+190.969C748.331+174.028+755.499+160.778+769.834+151.222C784.184+141.649+807.332+135.234+839.275+131.984C838.841+124.809+836.715+119.107+832.915+114.888C829.106+110.652+822.753+108.527+813.863+108.527C806.913+108.527+800.009+109.83+793.167+112.436C786.318+115.043+778.987+118.626+771.168+123.172L753.885+91.5542C764.311+85.2709+775.217+80.1668+786.62+76.2572C798.039+72.3321+810.155+70.3618+822.985+70.3618C843.836+70.3618+859.739+76.2882+870.707+88.1411C881.691+99.9939+887.183+118.417+887.183+143.403L887.183+235.96L848.087+235.96L844.829+219.329L843.526+219.329C836.576+225.411+829.292+230.36+821.682+234.161C814.065+237.962+805.703+239.87+796.58+239.87ZM812.87+202.698C818.308+202.698+822.985+201.511+826.895+199.13C830.805+196.733+834.931+193.358+839.275+189.014L839.275+160.654C822.334+163.059+810.59+166.542+804.058+171.111C797.542+175.664+794.284+181.094+794.284+187.401C794.284+192.614+795.967+196.477+799.342+198.974C802.708+201.457+807.223+202.698+812.87+202.698Z" opacity="1" fill="#929292"/>
<path d="M955.184+239.87C946.931+239.87+940.027+236.992+934.488+231.244C928.942+225.473+926.173+218.359+926.173+209.896C926.173+201.193+928.942+193.963+934.488+188.208C940.027+182.46+946.931+179.582+955.184+179.582C963.438+179.582+970.334+182.46+975.88+188.208C981.419+193.963+984.196+201.193+984.196+209.896C984.196+218.359+981.419+225.473+975.88+231.244C970.334+236.992+963.438+239.87+955.184+239.87Z" opacity="1" fill="#ff225c"/>
<path d="M1025.25+235.96L1025.25+74.3024L1073.16+74.3024L1073.16+235.96L1025.25+235.96Z" opacity="1" fill="#ff225c"/>
<path d="M1184.61+239.87C1174.41+239.87+1164.52+237.962+1154.95+234.161C1145.39+230.36+1136.96+224.875+1129.69+217.716C1122.4+210.54+1116.59+201.689+1112.25+191.155C1107.91+180.606+1105.73+168.598+1105.73+155.131C1105.73+141.649+1107.91+129.642+1112.25+119.107C1116.59+108.558+1122.4+99.7069+1129.69+92.5471C1136.96+85.3718+1145.39+79.8798+1154.95+76.071C1164.52+72.2701+1174.41+70.3618+1184.61+70.3618C1194.82+70.3618+1204.66+72.2701+1214.12+76.071C1223.56+79.8798+1231.93+85.3718+1239.22+92.5471C1246.49+99.7069+1252.31+108.558+1256.66+119.107C1261+129.642+1263.17+141.649+1263.17+155.131C1263.17+168.598+1261+180.606+1256.66+191.155C1252.31+201.689+1246.49+210.54+1239.22+217.716C1231.93+224.875+1223.56+230.36+1214.12+234.161C1204.66+237.962+1194.82+239.87+1184.61+239.87ZM1184.61+201.084C1194.39+201.084+1201.77+196.958+1206.76+188.704C1211.77+180.45+1214.27+169.265+1214.27+155.131C1214.27+141.006+1211.77+129.812+1206.76+121.559C1201.77+113.305+1194.39+109.178+1184.61+109.178C1174.62+109.178+1167.17+113.305+1162.27+121.559C1157.38+129.812+1154.95+141.006+1154.95+155.131C1154.95+169.265+1157.38+180.45+1162.27+188.704C1167.17+196.958+1174.62+201.084+1184.61+201.084Z" opacity="1" fill="#ff225c"/>
<g opacity="1" vectornator:mask="#Mask">
<clipPath id="ClipPath">
<use xlink:href="#Mask" fill="none" overflow="visible"/>
</clipPath>
<g clip-path="url(#ClipPath)">
<path d="M92.6289+2.19392C53.7038+2.19392+22.1557+33.8273+22.1557+72.8455L22.1557+143.489L50.345+143.489L50.345+72.8455C50.345+49.4346+69.2723+30.453+92.6289+30.453C115.985+30.453+134.921+49.4346+134.921+72.8455L134.921+143.489L163.11+143.489L163.11+72.8455C163.11+33.8273+131.554+2.19392+92.6289+2.19392Z" opacity="1" fill="#ff225c"/>
</g>
</g>
<g opacity="1" vectornator:mask="#Mask_2">
<clipPath id="ClipPath_2">
<use xlink:href="#Mask_2" fill="none" overflow="visible"/>
</clipPath>
<g clip-path="url(#ClipPath_2)">
<path d="M184.256+207.074C184.256+222.681+171.627+235.341+156.059+235.341L29.1991+235.341C13.6306+235.341+1.00986+222.681+1.00986+207.074L1.00986+122.297C1.00986+106.69+13.6306+94.0379+29.1991+94.0379L156.059+94.0379C171.627+94.0379+184.256+106.69+184.256+122.297L184.256+207.074Z" opacity="1" fill="#ff225c"/>
</g>
</g>
<g opacity="1" vectornator:mask="#Mask_3">
<clipPath id="ClipPath_3">
<use xlink:href="#Mask_3" fill="none" overflow="visible"/>
</clipPath>
<g clip-path="url(#ClipPath_3)">
<path d="M68.8611+157.181L68.8611+119.504L159.518+164.364L107.608+164.364L68.8611+157.181ZM68.8611+177.558L107.499+170.655L159.464+170.655L68.8611+215.506L68.8611+177.558Z" opacity="1" fill="#ffffff"/>
</g>
</g>
<g opacity="1" vectornator:mask="#Mask_4">
<clipPath id="ClipPath_4">
<use xlink:href="#Mask_4" fill="none" overflow="visible"/>
</clipPath>
<g clip-path="url(#ClipPath_4)">
<path d="M26.6626+111.414L48.6539+111.414L48.6539+117.689L26.6626+117.689L26.6626+111.414Z" opacity="1" fill="#ffffff"/>
</g>
</g>
<path d="M37.6699+137.734L48.6617+137.734L48.6617+144.017L37.6699+144.017L37.6699+137.734Z" opacity="1" fill="#ffffff"/>
<g opacity="1" vectornator:mask="#Mask_5">
<clipPath id="ClipPath_5">
<use xlink:href="#Mask_5" fill="none" overflow="visible"/>
</clipPath>
<g clip-path="url(#ClipPath_5)">
<path d="M26.6626+137.734L32.7596+137.734L32.7596+144.017L26.6626+144.017L26.6626+137.734Z" opacity="1" fill="#ffffff"/>
</g>
</g>
<g opacity="1" vectornator:mask="#Mask_6">
<clipPath id="ClipPath_6">
<use xlink:href="#Mask_6" fill="none" overflow="visible"/>
</clipPath>
<g clip-path="url(#ClipPath_6)">
<path d="M26.6626+190.994L32.7596+190.994L32.7596+196.959L26.6626+196.959L26.6626+190.994Z" opacity="1" fill="#ffffff"/>
</g>
</g>
<g opacity="1" vectornator:mask="#Mask_7">
<clipPath id="ClipPath_7">
<use xlink:href="#Mask_7" fill="none" overflow="visible"/>
</clipPath>
<g clip-path="url(#ClipPath_7)">
<path d="M26.6626+164.364L48.6539+164.364L48.6539+170.647L26.6626+170.647L26.6626+164.364Z" opacity="1" fill="#ffffff"/>
</g>
</g>
<path d="M37.6699+190.994L48.6617+190.994L48.6617+196.959L37.6699+196.959L37.6699+190.994Z" opacity="1" fill="#ffffff"/>
<g opacity="1" vectornator:mask="#Mask_8">
<clipPath id="ClipPath_8">
<use xlink:href="#Mask_8" fill="none" overflow="visible"/>
</clipPath>
<g clip-path="url(#ClipPath_8)">
<path d="M26.6626+217.306L48.6539+217.306L48.6539+223.597L26.6626+223.597L26.6626+217.306Z" opacity="1" fill="#ffffff"/>
</g>
</g>
<g opacity="1" vectornator:mask="#Mask_9">
<clipPath id="ClipPath_9">
<use xlink:href="#Mask_9" fill="none" overflow="visible"/>
</clipPath>
<g clip-path="url(#ClipPath_9)">
<path d="M236.694+30.0031L236.694+6.98004L292.452+34.3858L260.523+34.3858L236.694+30.0031ZM236.694+42.4532L260.461+38.2334L292.421+38.2334L236.694+65.6392L236.694+42.4532Z" opacity="1" fill="#929292"/>
</g>
</g>
<g opacity="1" vectornator:mask="#Mask_10">
<clipPath id="ClipPath_10">
<use xlink:href="#Mask_10" fill="none" overflow="visible"/>
</clipPath>
<g clip-path="url(#ClipPath_10)">
<path d="M210.738+2.03877L224.267+2.03877L224.267+5.87078L210.738+5.87078L210.738+2.03877Z" opacity="1" fill="#929292"/>
</g>
</g>
<path d="M217.51+18.1192L224.267+18.1192L224.267+21.959L217.51+21.959L217.51+18.1192Z" opacity="1" fill="#929292"/>
<g opacity="1" vectornator:mask="#Mask_11">
<clipPath id="ClipPath_11">
<use xlink:href="#Mask_11" fill="none" overflow="visible"/>
</clipPath>
<g clip-path="url(#ClipPath_11)">
<path d="M210.738+18.1192L214.485+18.1192L214.485+21.959L210.738+21.959L210.738+18.1192Z" opacity="1" fill="#929292"/>
</g>
</g>
<g opacity="1" vectornator:mask="#Mask_12">
<clipPath id="ClipPath_12">
<use xlink:href="#Mask_12" fill="none" overflow="visible"/>
</clipPath>
<g clip-path="url(#ClipPath_12)">
<path d="M210.738+50.6602L214.485+50.6602L214.485+54.3061L210.738+54.3061L210.738+50.6602Z" opacity="1" fill="#929292"/>
</g>
</g>
<g opacity="1" vectornator:mask="#Mask_13">
<clipPath id="ClipPath_13">
<use xlink:href="#Mask_13" fill="none" overflow="visible"/>
</clipPath>
<g clip-path="url(#ClipPath_13)">
<path d="M210.738+34.3858L224.267+34.3858L224.267+38.2256L210.738+38.2256L210.738+34.3858Z" opacity="1" fill="#929292"/>
</g>
</g>
<path d="M217.51+50.6602L224.267+50.6602L224.267+54.3061L217.51+54.3061L217.51+50.6602Z" opacity="1" fill="#929292"/>
<g opacity="1" vectornator:mask="#Mask_14">
<clipPath id="ClipPath_14">
<use xlink:href="#Mask_14" fill="none" overflow="visible"/>
</clipPath>
<g clip-path="url(#ClipPath_14)">
<path d="M210.738+66.7407L224.267+66.7407L224.267+70.5804L210.738+70.5804L210.738+66.7407Z" opacity="1" fill="#929292"/>
</g>
</g>
<g opacity="1" vectornator:mask="#Mask_15">
<clipPath id="ClipPath_15">
<use xlink:href="#Mask_15" fill="none" overflow="visible"/>
</clipPath>
<g clip-path="url(#ClipPath_15)">
<path d="M1025.68+30.0031L1025.68+6.98004L1081.44+34.3858L1049.51+34.3858L1025.68+30.0031ZM1025.68+42.4532L1049.45+38.2334L1081.41+38.2334L1025.68+65.6392L1025.68+42.4532Z" opacity="1" fill="#ff225c"/>
</g>
</g>
<g opacity="1" vectornator:mask="#Mask_16">
<clipPath id="ClipPath_16">
<use xlink:href="#Mask_16" fill="none" overflow="visible"/>
</clipPath>
<g clip-path="url(#ClipPath_16)">
<path d="M999.728+2.03877L1013.26+2.03877L1013.26+5.87078L999.728+5.87078L999.728+2.03877Z" opacity="1" fill="#ff225c"/>
</g>
</g>
<path d="M1006.5+18.1192L1013.26+18.1192L1013.26+21.959L1006.5+21.959L1006.5+18.1192Z" opacity="1" fill="#ff225c"/>
<g opacity="1" vectornator:mask="#Mask_17">
<clipPath id="ClipPath_17">
<use xlink:href="#Mask_17" fill="none" overflow="visible"/>
</clipPath>
<g clip-path="url(#ClipPath_17)">
<path d="M999.728+18.1192L1003.47+18.1192L1003.47+21.959L999.728+21.959L999.728+18.1192Z" opacity="1" fill="#ff225c"/>
</g>
</g>
<g opacity="1" vectornator:mask="#Mask_18">
<clipPath id="ClipPath_18">
<use xlink:href="#Mask_18" fill="none" overflow="visible"/>
</clipPath>
<g clip-path="url(#ClipPath_18)">
<path d="M999.728+50.6602L1003.47+50.6602L1003.47+54.3061L999.728+54.3061L999.728+50.6602Z" opacity="1" fill="#ff225c"/>
</g>
</g>
<g opacity="1" vectornator:mask="#Mask_19">
<clipPath id="ClipPath_19">
<use xlink:href="#Mask_19" fill="none" overflow="visible"/>
</clipPath>
<g clip-path="url(#ClipPath_19)">
<path d="M999.728+34.3858L1013.26+34.3858L1013.26+38.2256L999.728+38.2256L999.728+34.3858Z" opacity="1" fill="#ff225c"/>
</g>
</g>
<path d="M1006.5+50.6602L1013.26+50.6602L1013.26+54.3061L1006.5+54.3061L1006.5+50.6602Z" opacity="1" fill="#ff225c"/>
<g opacity="1" vectornator:mask="#Mask_20">
<clipPath id="ClipPath_20">
<use xlink:href="#Mask_20" fill="none" overflow="visible"/>
</clipPath>
<g clip-path="url(#ClipPath_20)">
<path d="M999.728+66.7407L1013.26+66.7407L1013.26+70.5804L999.728+70.5804L999.728+66.7407Z" opacity="1" fill="#ff225c"/>
</g>
</g>
</g>
</svg>
