<?xml version="1.0" encoding="UTF-8" standalone="no"?> <!-- Created with Vectornator for iOS (http://vectornator.io/) --><!DOCTYPE svg PUBLIC "-//W3C//DTD SVG 1.1//EN" "http://www.w3.org/Graphics/SVG/1.1/DTD/svg11.dtd">
<svg height="100%" style="fill-rule:nonzero;clip-rule:evenodd;stroke-linecap:round;stroke-linejoin:round;" xmlns:xlink="http://www.w3.org/1999/xlink" xmlns="http://www.w3.org/2000/svg" xml:space="preserve" width="100%" xmlns:vectornator="http://vectornator.io" version="1.1" viewBox="0 0 289.078 280">
<metadata>
<vectornator:setting key="DimensionsVisible" value="0"/>
<vectornator:setting key="PencilOnly" value="0"/>
<vectornator:setting key="SnapToPoints" value="0"/>
<vectornator:setting key="OutlineMode" value="0"/>
<vectornator:setting key="CMYKEnabledKey" value="0"/>
<vectornator:setting key="RulersVisible" value="1"/>
<vectornator:setting key="SnapToEdges" value="0"/>
<vectornator:setting key="GuidesVisible" value="0"/>
<vectornator:setting key="DisplayWhiteBackground" value="0"/>
<vectornator:setting key="doHistoryDisabled" value="0"/>
<vectornator:setting key="SnapToGuides" value="1"/>
<vectornator:setting key="TimeLapseWatermarkDisabled" value="0"/>
<vectornator:setting key="Units" value="Points"/>
<vectornator:setting key="DynamicGuides" value="1"/>
<vectornator:setting key="IsolateActiveLayer" value="0"/>
<vectornator:setting key="SnapToGrid" value="0"/>
</metadata>
<defs>
<linearGradient y1="48" id="LinearGradient" x1="20.25" y2="48" x2="75.75" gradientUnits="userSpaceOnUse" gradientTransform="matrix(3.5691 0 0 3.78663 -16.4505 -41.7602)">
<stop stop-color="#ff451f" offset="0"/>
<stop stop-color="#ff8066" offset="1"/>
</linearGradient>
<linearGradient y1="48" id="LinearGradient_2" x1="20.25" y2="48" x2="75.75" gradientUnits="userSpaceOnUse" gradientTransform="matrix(3.5691 0 0 3.78663 -16.4505 -41.7602)">
<stop stop-color="#ff451f" offset="0"/>
<stop stop-color="#ff8066" offset="1"/>
</linearGradient>
<linearGradient y1="48" id="LinearGradient_3" x1="20.25" y2="48" x2="75.75" gradientUnits="userSpaceOnUse" gradientTransform="matrix(3.5691 0 0 3.78663 -16.4505 -41.7602)">
<stop stop-color="#ff451f" offset="0"/>
<stop stop-color="#ff8066" offset="1"/>
</linearGradient>
<linearGradient y1="48" id="LinearGradient_4" x1="20.25" y2="48" x2="75.75" gradientUnits="userSpaceOnUse" gradientTransform="matrix(3.5691 0 0 3.78663 -16.4505 -41.7602)">
<stop stop-color="#ff451f" offset="0"/>
<stop stop-color="#ff8066" offset="1"/>
</linearGradient>
<linearGradient y1="48" id="LinearGradient_5" x1="20.25" y2="48" x2="75.75" gradientUnits="userSpaceOnUse" gradientTransform="matrix(3.5691 0 0 3.78663 -16.4505 -41.7602)">
<stop stop-color="#ff451f" offset="0"/>
<stop stop-color="#ff8066" offset="1"/>
</linearGradient>
<linearGradient y1="48" id="LinearGradient_6" x1="20.25" y2="48" x2="75.75" gradientUnits="userSpaceOnUse" gradientTransform="matrix(3.5691 0 0 3.78663 -16.4505 -41.7602)">
<stop stop-color="#ff451f" offset="0"/>
<stop stop-color="#ff8066" offset="1"/>
</linearGradient>
<linearGradient y1="48" id="LinearGradient_7" x1="20.25" y2="48" x2="75.75" gradientUnits="userSpaceOnUse" gradientTransform="matrix(3.5691 0 0 3.78663 -16.4505 -41.7602)">
<stop stop-color="#ff451f" offset="0"/>
<stop stop-color="#ff8066" offset="1"/>
</linearGradient>
<linearGradient y1="48" id="LinearGradient_8" x1="20.25" y2="48" x2="75.75" gradientUnits="userSpaceOnUse" gradientTransform="matrix(3.5691 0 0 3.78663 -16.4505 -41.7602)">
<stop stop-color="#ff451f" offset="0"/>
<stop stop-color="#ff8066" offset="1"/>
</linearGradient>
<linearGradient y1="48" id="LinearGradient_9" x1="20.25" y2="48" x2="75.75" gradientUnits="userSpaceOnUse" gradientTransform="matrix(3.5691 0 0 3.78663 -16.4505 -41.7602)">
<stop stop-color="#ff451f" offset="0"/>
<stop stop-color="#ff8066" offset="1"/>
</linearGradient>
<linearGradient y1="48" id="LinearGradient_10" x1="20.25" y2="48" x2="75.75" gradientUnits="userSpaceOnUse" gradientTransform="matrix(3.5691 0 0 3.78663 -16.4505 -41.7602)">
<stop stop-color="#ff451f" offset="0"/>
<stop stop-color="#ff8066" offset="1"/>
</linearGradient>
<linearGradient y1="48" id="LinearGradient_11" x1="20.25" y2="48" x2="75.75" gradientUnits="userSpaceOnUse" gradientTransform="matrix(3.5691 0 0 3.78663 -16.4505 -41.7602)">
<stop stop-color="#ff451f" offset="0"/>
<stop stop-color="#ff8066" offset="1"/>
</linearGradient>
<linearGradient y1="48" id="LinearGradient_12" x1="20.25" y2="48" x2="75.75" gradientUnits="userSpaceOnUse" gradientTransform="matrix(3.5691 0 0 3.78663 -16.4505 -41.7602)">
<stop stop-color="#ff451f" offset="0"/>
<stop stop-color="#ff8066" offset="1"/>
</linearGradient>
<linearGradient y1="48" id="LinearGradient_13" x1="20.25" y2="48" x2="75.75" gradientUnits="userSpaceOnUse" gradientTransform="matrix(3.5691 0 0 3.78663 -16.4505 -41.7602)">
<stop stop-color="#ff451f" offset="0"/>
<stop stop-color="#ff8066" offset="1"/>
</linearGradient>
<linearGradient y1="48" id="LinearGradient_14" x1="20.25" y2="48" x2="75.75" gradientUnits="userSpaceOnUse" gradientTransform="matrix(3.5691 0 0 3.78663 -16.4505 -41.7602)">
<stop stop-color="#ff451f" offset="0"/>
<stop stop-color="#ff8066" offset="1"/>
</linearGradient>
<linearGradient y1="48" id="LinearGradient_15" x1="20.25" y2="48" x2="75.75" gradientUnits="userSpaceOnUse" gradientTransform="matrix(3.5691 0 0 3.78663 -16.4505 -41.7602)">
<stop stop-color="#ff451f" offset="0"/>
<stop stop-color="#ff8066" offset="1"/>
</linearGradient>
<linearGradient y1="48" id="LinearGradient_16" x1="20.25" y2="48" x2="75.75" gradientUnits="userSpaceOnUse" gradientTransform="matrix(3.5691 0 0 3.78663 -16.4505 -41.7602)">
<stop stop-color="#ff451f" offset="0"/>
<stop stop-color="#ff8066" offset="1"/>
</linearGradient>
<linearGradient y1="48" id="LinearGradient_17" x1="20.25" y2="48" x2="75.75" gradientUnits="userSpaceOnUse" gradientTransform="matrix(3.5691 0 0 3.78663 -16.4505 -41.7602)">
<stop stop-color="#ff451f" offset="0"/>
<stop stop-color="#ff8066" offset="1"/>
</linearGradient>
<linearGradient y1="48" id="LinearGradient_18" x1="20.25" y2="48" x2="75.75" gradientUnits="userSpaceOnUse" gradientTransform="matrix(3.5691 0 0 3.78663 -16.4505 -41.7602)">
<stop stop-color="#ff451f" offset="0"/>
<stop stop-color="#ff8066" offset="1"/>
</linearGradient>
</defs>
<g id="SvgjsG1008" vectornator:layerName="SvgjsG1008">
<path d="M83.9411+179.038C84.7569+177.976+84.9678+176.528+84.4924+175.254C84.017+173.979+82.9297+173.077+81.6493+172.894C80.369+172.711+79.0955+173.277+78.3198+174.373C76.455+176.898+74.2338+179.103+71.7348+180.909C70.3214+181.931+68.9009+183.071+67.2591+184.502C65.7663+185.84+65.5644+188.202+66.8061+189.802C68.0479+191.403+70.2716+191.646+71.7955+190.349C73.2659+189.062+74.5223+188.054+75.7536+187.161C78.8619+184.918+81.6239+182.178+83.9411+179.038Z" opacity="1" fill="url(#LinearGradient)"/>
<path d="M104.007+155.834C104.007+154.788+103.208+153.94+102.222+153.94C101.236+153.94+100.437+154.788+100.437+155.834C100.437+171.45+93.0887+186.085+80.7789+194.988C79.4369+195.957+78.0592+197.097+76.5673+198.475C76.006+198.994+75.8072+199.828+76.0687+200.568C76.3302+201.307+76.9971+201.797+77.7416+201.796C78.1592+201.796+78.5768+201.644+78.9158+201.33C80.2971+200.05+81.5641+199.001+82.7883+198.115C96.0725+188.512+104.007+172.703+104.007+155.834Z" opacity="1" fill="url(#LinearGradient_2)"/>
<path d="M145.162+89.8517C141.914+89.7381+138.638+89.9994+135.418+90.6166C112.819+94.9334+96.4151+116.521+97.2645+140.831C97.3356+142.866+98.9107+144.477+100.83+144.478L100.966+144.474C102.936+144.396+104.473+142.638+104.399+140.547C103.678+119.982+117.558+101.723+136.685+98.0687C139.406+97.5434+142.173+97.3264+144.937+97.4212C146.875+97.4818+148.556+95.846+148.617+93.7558C148.679+91.6655+147.132+89.9176+145.162+89.8517Z" opacity="1" fill="url(#LinearGradient_3)"/>
<path d="M157.286+177.588C157.751+177.68+158.231+177.572+158.621+177.288C159.01+177.003+159.277+176.567+159.363+176.073C161.662+162.845+161.69+149.284+159.445+136.045C157.882+126.805+149.523+120.648+140.793+122.292C136.571+123.098+132.898+125.601+130.45+129.339C128.002+133.076+127.074+137.601+127.834+142.081C128.979+148.856+129.273+155.762+128.708+162.619C128.667+163.12+128.815+163.618+129.119+164.003C129.424+164.388+129.86+164.629+130.332+164.672C131.309+164.749+132.167+163.987+132.267+162.953C132.861+155.761+132.553+148.516+131.349+141.411C130.753+137.952+131.486+134.383+133.384+131.501C135.267+128.606+138.164+126.633+141.429+126.022C148.216+124.738+154.703+129.522+155.933+136.719C158.103+149.507+158.076+162.606+155.855+175.384C155.677+176.412+156.318+177.398+157.286+177.588Z" opacity="1" fill="url(#LinearGradient_4)"/>
<path d="M168.225+134.367C168.575+136.426+170.432+137.794+172.373+137.423C174.313+137.052+175.603+135.082+175.253+133.023C173.764+124.117+168.978+116.214+161.962+111.076C154.977+105.895+146.329+103.895+137.945+105.521C135.562+105.976+133.235+106.713+131.007+107.717C129.193+108.537+128.35+110.761+129.122+112.685C129.895+114.609+131.991+115.504+133.805+114.684C135.54+113.902+137.353+113.328+139.209+112.973C145.728+111.705+152.455+113.261+157.886+117.293C163.345+121.29+167.069+127.439+168.225+134.367Z" opacity="1" fill="url(#LinearGradient_5)"/>
<path d="M66.4454+100.095C68.1761+101.094+70.3424+100.416+71.2851+98.5799C86.104+69.6652+114.371+51.7052+145.051+51.7052C148.085+51.7052+151.147+51.8832+154.145+52.2353C156.105+52.4636+157.869+50.9633+158.084+48.884C158.3+46.8047+156.887+44.9334+154.927+44.7037C151.647+44.3216+148.35+44.1307+145.051+44.1319C111.752+44.1319+81.0858+63.6104+65.0142+94.9637C64.0735+96.7998+64.7144+99.0973+66.4454+100.095Z" opacity="1" fill="url(#LinearGradient_6)"/>
<path d="M130.678+62.6675C118.282+64.9917+106.672+70.7057+96.9933+79.2454C96.2344+79.9135+96.1297+81.1079+96.7595+81.9131C97.3893+82.7182+98.5151+82.8293+99.274+82.1611C108.481+74.041+119.524+68.6077+131.314+66.3973C150.337+62.7952+169.917+67.7153+185.396+79.9876C186.185+80.6139+187.302+80.4435+187.893+79.607C188.483+78.7705+188.323+77.5846+187.534+76.9583C171.263+64.0519+150.678+58.8777+130.678+62.6675Z" opacity="1" fill="url(#LinearGradient_7)"/>
<path d="M61.0168+158.288C59.9378+152.492+59.3939+146.599+59.3929+140.691C59.3929+130.198+61.1024+119.884+64.4681+110.046C64.7506+109.078+64.2669+108.046+63.3693+107.701C62.4717+107.356+61.4769+107.82+61.1096+108.755C57.6047+118.991+55.8157+129.8+55.8238+140.691C55.8238+146.833+56.3912+153.001+57.5119+159.022C57.7034+160.049+58.6428+160.716+59.6104+160.513C60.578+160.311+61.2076+159.314+61.0168+158.288Z" opacity="1" fill="url(#LinearGradient_8)"/>
<path d="M67.716+174.646C73.6799+170.333+77.2383+163.305+77.2383+155.834C77.2383+154.482+77.1241+153.126+76.8993+151.812C73.3545+130.991+78.6388+109.569+91.3434+93.2597C92.5989+91.6463+92.3835+89.2585+90.8624+87.9271C89.3413+86.5957+87.0907+86.825+85.8363+88.4393C71.7936+106.466+65.9542+130.143+69.8753+153.157C70.0252+154.028+70.1002+154.929+70.1002+155.83C70.1002+160.794+67.7053+165.486+63.6972+168.383C63.0985+168.824+62.514+169.286+61.9448+169.769L61.1132+170.454C60.0634+171.253+59.5027+172.592+59.6473+173.954C59.7919+175.316+60.6192+176.489+61.8102+177.021C63.0013+177.552+64.3701+177.359+65.3889+176.516L66.3562+175.725C66.7987+175.361+67.2413+174.99+67.716+174.646Z" opacity="1" fill="url(#LinearGradient_9)"/>
<path d="M131.317+178.686C131.86+176.675+130.763+174.578+128.867+174.003C126.972+173.427+124.995+174.592+124.454+176.603C120.107+192.674+110.595+207.021+97.6714+217.011C96.0785+218.243+95.7283+220.611+96.889+222.302C98.0497+223.992+100.282+224.365+101.876+223.134C116.077+212.156+126.531+196.373+131.317+178.686Z" opacity="1" fill="url(#LinearGradient_10)"/>
<path d="M175.174+148.279C175.114+147.238+174.271+146.386+173.29+146.5C172.306+146.561+171.556+147.456+171.612+148.499C171.748+150.945+171.819+153.391+171.819+155.834C171.819+183.416+162.897+210.539+146.693+232.203C146.266+232.771+146.184+233.549+146.483+234.203C146.781+234.858+147.407+235.272+148.092+235.27C148.637+235.271+149.153+235.008+149.491+234.554C166.22+212.149+175.344+184.417+175.392+155.834C175.389+153.314+175.316+150.795+175.174+148.279Z" opacity="1" fill="url(#LinearGradient_11)"/>
<path d="M189.665+155.834C189.663+147.399+188.955+138.981+187.548+130.679C184.854+114.5+174.404+100.981+159.977+95.0091C159.06+94.6254+158.023+95.1035+157.661+96.077C157.299+97.0505+157.75+98.1507+158.667+98.5345C171.941+104.028+181.555+116.467+184.033+131.353C185.4+139.423+186.092+147.658+186.092+155.838C186.09+168.792+184.361+181.68+180.956+194.12C180.681+195.124+181.224+196.175+182.17+196.468C183.116+196.76+184.106+196.184+184.383+195.181C187.885+182.395+189.663+169.148+189.665+155.834Z" opacity="1" fill="url(#LinearGradient_12)"/>
<path d="M179.596+204.666C178.719+204.289+177.736+204.297+176.864+204.689C175.993+205.081+175.304+205.825+174.95+206.756C172.082+214.259+168.594+221.478+164.528+228.329C163.827+229.474+163.761+230.931+164.355+232.142C164.95+233.353+166.113+234.13+167.399+234.176C168.686+234.223+169.896+233.531+170.567+232.365C174.861+225.135+178.542+217.514+181.567+209.593C182.303+207.655+181.422+205.45+179.596+204.666Z" opacity="1" fill="url(#LinearGradient_13)"/>
<path d="M124.597+116.173C123.118+114.791+120.864+114.942+119.561+116.51C113.041+124.306+110.264+134.85+112.03+145.102C112.63+148.632+112.933+152.24+112.933+155.834C112.933+164.884+110.959+173.979+107.226+182.14C106.364+184.021+107.104+186.286+108.877+187.2C110.65+188.114+112.785+187.33+113.647+185.449C117.86+176.217+120.056+166.095+120.071+155.838C120.071+151.797+119.728+147.73+119.054+143.766C117.683+135.789+119.844+127.586+124.914+121.519C126.217+119.949+126.075+117.557+124.597+116.173Z" opacity="1" fill="url(#LinearGradient_14)"/>
<path d="M235.953+144.576C236.002+143.281+236.063+141.986+236.063+140.687C236.063+97.6068+208.631+59.3542+169.364+47.6686C167.466+47.1041+165.496+48.2782+164.963+50.2914C164.43+52.3046+165.536+54.3952+167.433+54.9617C203.638+65.7347+228.925+100.988+228.925+140.687C228.925+141.339+228.9+141.994+228.886+142.645C227.715+142.482+226.536+142.396+225.356+142.387C223.393+142.387+221.435+142.603+219.513+143.031C219.107+136.978+218.402+130.952+217.404+124.977C214.941+110.379+208.671+96.8072+199.305+85.8C197.984+84.2474+195.726+84.1258+194.263+85.5283C192.8+86.9309+192.686+89.3263+194.008+90.8779C202.481+100.836+208.153+113.115+210.38+126.321C211.461+132.697+212.15+139.173+212.525+145.659C209.237+147.424+206.301+149.845+203.877+152.789C203.736+144.474+202.975+136.183+201.6+127.994C195.847+94.1079+165.17+71.4752+133.205+77.5755C101.248+83.6795+79.9259+116.229+85.6793+150.139C86.3966+154.349+86.3092+158.669+85.4223+162.843C85.2646+163.509+85.4594+164.214+85.9312+164.684C86.4031+165.154+87.0779+165.316+87.6948+165.108C88.3116+164.899+88.7737+164.353+88.9022+163.68C89.8927+159.011+89.991+154.178+89.1913+149.468C83.7876+117.619+103.814+87.042+133.834+81.3053C163.857+75.5761+192.681+96.8343+198.081+128.672C199.598+137.605+200.369+146.746+200.369+155.841C200.369+156.599+200.351+157.348+200.34+158.102C198.014+162.567+196.796+167.586+196.8+172.688C196.8+174.199+196.939+175.672+197.142+177.126C197.003+178.156+196.871+179.19+196.714+180.212C194.603+193.833+190.747+207.084+185.253+219.597C184.422+221.492+185.195+223.743+186.981+224.626C188.767+225.508+190.889+224.688+191.721+222.793C196.283+212.361+199.763+201.434+202.1+190.205C207.44+198.211+216.108+202.973+225.352+202.981C241.096+202.981+253.905+189.391+253.905+172.688C253.909+159.954+246.46+149.052+235.953+144.576Z" opacity="1" fill="url(#LinearGradient_15)"/>
<path d="M241.263+165.891L223.418+184.824C222.75+185.537+221.842+185.938+220.894+185.938C219.947+185.938+219.039+185.537+218.371+184.824L209.448+175.358C208.055+173.879+208.055+171.482+209.448+170.003C210.842+168.525+213.101+168.525+214.495+170.003L220.894+176.793L236.217+160.537C237.61+159.058+239.87+159.058+241.263+160.537C242.657+162.015+242.657+164.413+241.263+165.891Z" opacity="1" fill="#ffffff"/>
<path d="M104.089+197.778C104.715+196.97+104.605+195.776+103.843+195.112C103.081+194.448+101.955+194.565+101.33+195.374C97.7256+200.031+93.5104+204.115+88.8129+207.502C88.0585+208.058+87.3262+208.647+86.6179+209.267C85.8728+209.934+85.7701+211.112+86.3873+211.913C87.0045+212.713+88.1131+212.84+88.8772+212.198C89.5029+211.647+90.1507+211.125+90.8188+210.634C95.7998+207.045+100.269+202.716+104.089+197.778Z" opacity="1" fill="url(#LinearGradient_16)"/>
<path d="M147.153+138.393C146.804+136.334+144.947+134.966+143.006+135.337C141.065+135.708+139.776+137.678+140.126+139.737C141.025+145.034+141.482+150.453+141.482+155.834C141.482+182.155+130.632+207.211+111.712+224.573C110.245+225.947+110.095+228.319+111.376+229.89C112.657+231.46+114.892+231.642+116.384+230.298C136.871+211.497+148.624+184.355+148.624+155.834C148.62+149.985+148.128+144.149+147.153+138.393Z" opacity="1" fill="url(#LinearGradient_17)"/>
<path d="M154.909+187.751C153.043+187.074+151.013+188.128+150.373+190.107C145.683+204.609+137.785+218.215+127.53+229.45C126.535+230.542+126.252+232.16+126.81+233.558C127.369+234.957+128.661+235.867+130.093+235.868C131.06+235.869+131.985+235.452+132.656+234.713C143.634+222.687+152.097+208.112+157.122+192.56C157.763+190.584+156.772+188.43+154.909+187.751Z" opacity="1" fill="url(#LinearGradient_18)"/>
</g>
</svg>
